<mxfile host="app.diagrams.net" agent="Mozilla/5.0 (Windows NT 10.0; Win64; x64; rv:139.0) Gecko/20100101 Firefox/139.0" version="27.1.4">
  <diagram name="Page-1" id="O3LLQqh4CwTxFtw0afM1">
    <mxGraphModel dx="868" dy="446" grid="1" gridSize="10" guides="1" tooltips="1" connect="1" arrows="1" fold="1" page="1" pageScale="1" pageWidth="850" pageHeight="1100" math="0" shadow="0">
      <root>
        <mxCell id="0" />
        <mxCell id="1" parent="0" />
        <mxCell id="8OnWNZd90nZluzdu8VkG-28" style="edgeStyle=entityRelationEdgeStyle;rounded=0;orthogonalLoop=1;jettySize=auto;html=1;exitX=1;exitY=0.5;exitDx=0;exitDy=0;orthogonal=1;elbow=vertical;" edge="1" parent="1" source="8OnWNZd90nZluzdu8VkG-25">
          <mxGeometry relative="1" as="geometry">
            <mxPoint x="220" y="420" as="targetPoint" />
            <mxPoint x="115" y="385" as="sourcePoint" />
            <Array as="points">
              <mxPoint x="185" y="445" />
              <mxPoint x="190" y="400" />
              <mxPoint x="245" y="375" />
              <mxPoint x="215" y="405" />
              <mxPoint x="225" y="445" />
            </Array>
          </mxGeometry>
        </mxCell>
        <mxCell id="8OnWNZd90nZluzdu8VkG-27" style="edgeStyle=entityRelationEdgeStyle;rounded=0;orthogonalLoop=1;jettySize=auto;html=1;exitX=1;exitY=0.5;exitDx=0;exitDy=0;orthogonal=1;elbow=vertical;" edge="1" parent="1" source="RXgc2p9tWntE05DesjV8-10">
          <mxGeometry relative="1" as="geometry">
            <mxPoint x="220" y="260" as="targetPoint" />
            <Array as="points">
              <mxPoint x="180" y="280" />
              <mxPoint x="240" y="210" />
              <mxPoint x="210" y="240" />
              <mxPoint x="220" y="280" />
            </Array>
          </mxGeometry>
        </mxCell>
        <mxCell id="RXgc2p9tWntE05DesjV8-3" value="" style="ellipse;" parent="1" vertex="1">
          <mxGeometry x="175" y="157" width="10" height="10" as="geometry" />
        </mxCell>
        <mxCell id="RXgc2p9tWntE05DesjV8-5" style="edgeStyle=orthogonalEdgeStyle;rounded=0;orthogonalLoop=1;jettySize=auto;html=1;exitX=0.5;exitY=1;exitDx=0;exitDy=0;entryX=0.5;entryY=0;entryDx=0;entryDy=0;entryPerimeter=0;endArrow=none;startFill=0;" parent="1" source="RXgc2p9tWntE05DesjV8-3" target="8OnWNZd90nZluzdu8VkG-16" edge="1">
          <mxGeometry relative="1" as="geometry">
            <mxPoint x="181" y="197" as="targetPoint" />
          </mxGeometry>
        </mxCell>
        <mxCell id="RXgc2p9tWntE05DesjV8-7" value="" style="pointerEvents=1;verticalLabelPosition=bottom;shadow=0;dashed=0;align=center;html=1;verticalAlign=top;shape=mxgraph.electrical.signal_sources.signal_ground;" parent="1" vertex="1">
          <mxGeometry x="172.5" y="460" width="15" height="10" as="geometry" />
        </mxCell>
        <mxCell id="RXgc2p9tWntE05DesjV8-10" value="" style="ellipse;" parent="1" vertex="1">
          <mxGeometry x="100" y="215" width="10" height="10" as="geometry" />
        </mxCell>
        <mxCell id="RXgc2p9tWntE05DesjV8-15" value="" style="pointerEvents=1;verticalLabelPosition=bottom;shadow=0;dashed=0;align=center;html=1;verticalAlign=top;shape=mxgraph.electrical.capacitors.capacitor_3;direction=south;" parent="1" vertex="1">
          <mxGeometry x="440" y="370" width="40" height="70" as="geometry" />
        </mxCell>
        <mxCell id="RXgc2p9tWntE05DesjV8-24" value="" style="pointerEvents=1;verticalLabelPosition=bottom;shadow=0;dashed=0;align=center;html=1;verticalAlign=top;shape=mxgraph.electrical.signal_sources.signal_ground;" parent="1" vertex="1">
          <mxGeometry x="452.5" y="500" width="15" height="10" as="geometry" />
        </mxCell>
        <mxCell id="RXgc2p9tWntE05DesjV8-25" style="edgeStyle=orthogonalEdgeStyle;rounded=0;orthogonalLoop=1;jettySize=auto;html=1;exitX=1;exitY=0.5;exitDx=0;exitDy=0;exitPerimeter=0;entryX=0.5;entryY=0;entryDx=0;entryDy=0;entryPerimeter=0;endArrow=none;startFill=0;" parent="1" source="RXgc2p9tWntE05DesjV8-15" target="RXgc2p9tWntE05DesjV8-24" edge="1">
          <mxGeometry relative="1" as="geometry" />
        </mxCell>
        <mxCell id="RXgc2p9tWntE05DesjV8-26" value="&lt;font style=&quot;font-size: 16px;&quot;&gt;V&lt;sub&gt;S&lt;/sub&gt;&lt;/font&gt;" style="text;html=1;align=center;verticalAlign=middle;resizable=0;points=[];autosize=1;strokeColor=none;fillColor=none;" parent="1" vertex="1">
          <mxGeometry x="175" y="120" width="40" height="40" as="geometry" />
        </mxCell>
        <mxCell id="RXgc2p9tWntE05DesjV8-29" value="&lt;font style=&quot;font-size: 16px;&quot;&gt;I&lt;sub&gt;L_med&lt;/sub&gt;&lt;/font&gt;" style="text;html=1;align=center;verticalAlign=middle;resizable=0;points=[];autosize=1;strokeColor=none;fillColor=none;" parent="1" vertex="1">
          <mxGeometry x="300" y="330" width="70" height="40" as="geometry" />
        </mxCell>
        <mxCell id="RXgc2p9tWntE05DesjV8-31" value="" style="endArrow=classic;html=1;rounded=0;" parent="1" edge="1">
          <mxGeometry width="50" height="50" relative="1" as="geometry">
            <mxPoint x="310" y="330" as="sourcePoint" />
            <mxPoint x="360" y="330" as="targetPoint" />
          </mxGeometry>
        </mxCell>
        <mxCell id="RXgc2p9tWntE05DesjV8-36" value="&lt;font style=&quot;font-size: 16px;&quot;&gt;U&lt;sub&gt;C&lt;/sub&gt;&lt;/font&gt;" style="text;html=1;align=center;verticalAlign=middle;resizable=0;points=[];autosize=1;strokeColor=none;fillColor=none;" parent="1" vertex="1">
          <mxGeometry x="530" y="390" width="40" height="40" as="geometry" />
        </mxCell>
        <mxCell id="RXgc2p9tWntE05DesjV8-37" value="" style="endArrow=classic;html=1;rounded=0;curved=1;" parent="1" edge="1">
          <mxGeometry width="50" height="50" relative="1" as="geometry">
            <mxPoint x="510" y="370" as="sourcePoint" />
            <mxPoint x="500" y="460" as="targetPoint" />
            <Array as="points">
              <mxPoint x="540" y="420" />
            </Array>
          </mxGeometry>
        </mxCell>
        <mxCell id="RXgc2p9tWntE05DesjV8-40" value="&lt;font style=&quot;font-size: 16px;&quot;&gt;C&lt;/font&gt;" style="text;html=1;align=center;verticalAlign=middle;resizable=0;points=[];autosize=1;strokeColor=none;fillColor=none;" parent="1" vertex="1">
          <mxGeometry x="480" y="395" width="40" height="30" as="geometry" />
        </mxCell>
        <mxCell id="RXgc2p9tWntE05DesjV8-41" value="&lt;font style=&quot;font-size: 16px;&quot;&gt;I&lt;sub&gt;C&lt;/sub&gt;&lt;/font&gt;" style="text;html=1;align=center;verticalAlign=middle;resizable=0;points=[];autosize=1;strokeColor=none;fillColor=none;" parent="1" vertex="1">
          <mxGeometry x="380" y="385" width="40" height="40" as="geometry" />
        </mxCell>
        <mxCell id="RXgc2p9tWntE05DesjV8-42" value="" style="endArrow=classic;html=1;rounded=0;" parent="1" edge="1">
          <mxGeometry width="50" height="50" relative="1" as="geometry">
            <mxPoint x="420" y="380" as="sourcePoint" />
            <mxPoint x="420" y="440" as="targetPoint" />
          </mxGeometry>
        </mxCell>
        <mxCell id="RXgc2p9tWntE05DesjV8-45" value="&lt;font style=&quot;font-size: 16px;&quot;&gt;q&lt;sup&gt;+&lt;/sup&gt;&lt;/font&gt;" style="text;html=1;align=center;verticalAlign=middle;resizable=0;points=[];autosize=1;strokeColor=none;fillColor=none;" parent="1" vertex="1">
          <mxGeometry x="60" y="200" width="40" height="40" as="geometry" />
        </mxCell>
        <mxCell id="8OnWNZd90nZluzdu8VkG-1" value="" style="pointerEvents=1;verticalLabelPosition=bottom;shadow=0;dashed=0;align=center;html=1;verticalAlign=top;shape=mxgraph.electrical.signal_sources.source;aspect=fixed;points=[[0.5,0,0],[1,0.5,0],[0.5,1,0],[0,0.5,0]];elSignalType=ac;" vertex="1" parent="1">
          <mxGeometry x="700" y="440" width="40" height="40" as="geometry" />
        </mxCell>
        <mxCell id="8OnWNZd90nZluzdu8VkG-2" value="" style="pointerEvents=1;verticalLabelPosition=bottom;shadow=0;dashed=0;align=center;html=1;verticalAlign=top;shape=mxgraph.electrical.inductors.inductor_5;" vertex="1" parent="1">
          <mxGeometry x="550" y="310" width="80" height="14" as="geometry" />
        </mxCell>
        <mxCell id="8OnWNZd90nZluzdu8VkG-4" value="" style="pointerEvents=1;verticalLabelPosition=bottom;shadow=0;dashed=0;align=center;html=1;verticalAlign=top;shape=mxgraph.electrical.resistors.resistor_1;direction=south;" vertex="1" parent="1">
          <mxGeometry x="712.5" y="350" width="15" height="50" as="geometry" />
        </mxCell>
        <mxCell id="8OnWNZd90nZluzdu8VkG-5" style="edgeStyle=orthogonalEdgeStyle;rounded=0;orthogonalLoop=1;jettySize=auto;html=1;exitX=1;exitY=0.645;exitDx=0;exitDy=0;exitPerimeter=0;entryX=0;entryY=0.5;entryDx=0;entryDy=0;entryPerimeter=0;endArrow=none;startFill=0;" edge="1" parent="1" source="8OnWNZd90nZluzdu8VkG-2" target="8OnWNZd90nZluzdu8VkG-4">
          <mxGeometry relative="1" as="geometry" />
        </mxCell>
        <mxCell id="8OnWNZd90nZluzdu8VkG-6" style="edgeStyle=orthogonalEdgeStyle;rounded=0;orthogonalLoop=1;jettySize=auto;html=1;exitX=1;exitY=0.5;exitDx=0;exitDy=0;exitPerimeter=0;entryX=0.5;entryY=0;entryDx=0;entryDy=0;entryPerimeter=0;endArrow=none;startFill=0;" edge="1" parent="1" source="8OnWNZd90nZluzdu8VkG-4" target="8OnWNZd90nZluzdu8VkG-1">
          <mxGeometry relative="1" as="geometry" />
        </mxCell>
        <mxCell id="8OnWNZd90nZluzdu8VkG-7" value="&lt;font style=&quot;font-size: 16px;&quot;&gt;I&lt;sub&gt;Lo&lt;/sub&gt;&lt;/font&gt;" style="text;html=1;align=center;verticalAlign=middle;resizable=0;points=[];autosize=1;strokeColor=none;fillColor=none;" vertex="1" parent="1">
          <mxGeometry x="570" y="350" width="40" height="40" as="geometry" />
        </mxCell>
        <mxCell id="8OnWNZd90nZluzdu8VkG-8" value="" style="endArrow=classic;html=1;rounded=0;" edge="1" parent="1">
          <mxGeometry width="50" height="50" relative="1" as="geometry">
            <mxPoint x="565" y="350" as="sourcePoint" />
            <mxPoint x="615" y="350" as="targetPoint" />
          </mxGeometry>
        </mxCell>
        <mxCell id="8OnWNZd90nZluzdu8VkG-9" value="&lt;font style=&quot;font-size: 16px;&quot;&gt;L&lt;sub&gt;o&lt;/sub&gt;&lt;/font&gt;" style="text;html=1;align=center;verticalAlign=middle;resizable=0;points=[];autosize=1;strokeColor=none;fillColor=none;" vertex="1" parent="1">
          <mxGeometry x="570" y="275" width="40" height="40" as="geometry" />
        </mxCell>
        <mxCell id="8OnWNZd90nZluzdu8VkG-10" value="&lt;font style=&quot;font-size: 16px;&quot;&gt;U&lt;sub&gt;Lo&lt;/sub&gt;&lt;/font&gt;" style="text;html=1;align=center;verticalAlign=middle;resizable=0;points=[];autosize=1;strokeColor=none;fillColor=none;" vertex="1" parent="1">
          <mxGeometry x="565" y="231" width="50" height="40" as="geometry" />
        </mxCell>
        <mxCell id="8OnWNZd90nZluzdu8VkG-11" value="" style="endArrow=classic;html=1;rounded=0;curved=1;" edge="1" parent="1">
          <mxGeometry width="50" height="50" relative="1" as="geometry">
            <mxPoint x="540" y="291" as="sourcePoint" />
            <mxPoint x="640" y="291" as="targetPoint" />
            <Array as="points">
              <mxPoint x="590" y="251" />
            </Array>
          </mxGeometry>
        </mxCell>
        <mxCell id="8OnWNZd90nZluzdu8VkG-12" value="" style="pointerEvents=1;verticalLabelPosition=bottom;shadow=0;dashed=0;align=center;html=1;verticalAlign=top;shape=mxgraph.electrical.signal_sources.signal_ground;" vertex="1" parent="1">
          <mxGeometry x="712.5" y="500" width="15" height="10" as="geometry" />
        </mxCell>
        <mxCell id="8OnWNZd90nZluzdu8VkG-13" style="edgeStyle=orthogonalEdgeStyle;rounded=0;orthogonalLoop=1;jettySize=auto;html=1;exitX=0.5;exitY=1;exitDx=0;exitDy=0;exitPerimeter=0;entryX=0.5;entryY=0;entryDx=0;entryDy=0;entryPerimeter=0;endArrow=none;startFill=0;" edge="1" parent="1" source="8OnWNZd90nZluzdu8VkG-1" target="8OnWNZd90nZluzdu8VkG-12">
          <mxGeometry relative="1" as="geometry" />
        </mxCell>
        <mxCell id="8OnWNZd90nZluzdu8VkG-14" value="&lt;font style=&quot;font-size: 16px;&quot;&gt;R&lt;sub&gt;o&lt;/sub&gt;&lt;/font&gt;" style="text;html=1;align=center;verticalAlign=middle;resizable=0;points=[];autosize=1;strokeColor=none;fillColor=none;" vertex="1" parent="1">
          <mxGeometry x="730" y="355" width="40" height="40" as="geometry" />
        </mxCell>
        <mxCell id="8OnWNZd90nZluzdu8VkG-15" value="&lt;font style=&quot;font-size: 16px;&quot;&gt;E&lt;sub&gt;o&lt;/sub&gt;&lt;/font&gt;" style="text;html=1;align=center;verticalAlign=middle;resizable=0;points=[];autosize=1;strokeColor=none;fillColor=none;" vertex="1" parent="1">
          <mxGeometry x="740" y="440" width="40" height="40" as="geometry" />
        </mxCell>
        <mxCell id="8OnWNZd90nZluzdu8VkG-16" value="" style="pointerEvents=1;verticalLabelPosition=bottom;shadow=0;dashed=0;align=center;html=1;verticalAlign=top;shape=mxgraph.electrical.signal_sources.current_source;" vertex="1" parent="1">
          <mxGeometry x="160" y="207" width="40" height="60" as="geometry" />
        </mxCell>
        <mxCell id="8OnWNZd90nZluzdu8VkG-17" value="" style="pointerEvents=1;verticalLabelPosition=bottom;shadow=0;dashed=0;align=center;html=1;verticalAlign=top;shape=mxgraph.electrical.signal_sources.current_source;" vertex="1" parent="1">
          <mxGeometry x="160" y="365" width="40" height="60" as="geometry" />
        </mxCell>
        <mxCell id="8OnWNZd90nZluzdu8VkG-18" style="edgeStyle=orthogonalEdgeStyle;rounded=0;orthogonalLoop=1;jettySize=auto;html=1;exitX=0.5;exitY=1;exitDx=0;exitDy=0;exitPerimeter=0;entryX=0.5;entryY=0;entryDx=0;entryDy=0;entryPerimeter=0;endArrow=none;startFill=0;" edge="1" parent="1" source="8OnWNZd90nZluzdu8VkG-17" target="RXgc2p9tWntE05DesjV8-7">
          <mxGeometry relative="1" as="geometry" />
        </mxCell>
        <mxCell id="8OnWNZd90nZluzdu8VkG-19" style="edgeStyle=orthogonalEdgeStyle;rounded=0;orthogonalLoop=1;jettySize=auto;html=1;exitX=0;exitY=0.5;exitDx=0;exitDy=0;exitPerimeter=0;entryX=0;entryY=0.645;entryDx=0;entryDy=0;entryPerimeter=0;endArrow=none;startFill=0;" edge="1" parent="1" source="RXgc2p9tWntE05DesjV8-15" target="8OnWNZd90nZluzdu8VkG-2">
          <mxGeometry relative="1" as="geometry" />
        </mxCell>
        <mxCell id="8OnWNZd90nZluzdu8VkG-21" style="edgeStyle=orthogonalEdgeStyle;rounded=0;orthogonalLoop=1;jettySize=auto;html=1;exitX=0.5;exitY=1;exitDx=0;exitDy=0;exitPerimeter=0;entryX=0;entryY=0.645;entryDx=0;entryDy=0;entryPerimeter=0;endArrow=none;startFill=0;" edge="1" parent="1" source="8OnWNZd90nZluzdu8VkG-16" target="8OnWNZd90nZluzdu8VkG-2">
          <mxGeometry relative="1" as="geometry" />
        </mxCell>
        <mxCell id="8OnWNZd90nZluzdu8VkG-22" style="edgeStyle=orthogonalEdgeStyle;rounded=0;orthogonalLoop=1;jettySize=auto;html=1;exitX=0.5;exitY=0;exitDx=0;exitDy=0;exitPerimeter=0;entryX=0.5;entryY=1;entryDx=0;entryDy=0;entryPerimeter=0;endArrow=none;startFill=0;" edge="1" parent="1" source="8OnWNZd90nZluzdu8VkG-17" target="8OnWNZd90nZluzdu8VkG-16">
          <mxGeometry relative="1" as="geometry" />
        </mxCell>
        <mxCell id="8OnWNZd90nZluzdu8VkG-25" value="" style="ellipse;" vertex="1" parent="1">
          <mxGeometry x="100" y="375" width="10" height="10" as="geometry" />
        </mxCell>
        <mxCell id="8OnWNZd90nZluzdu8VkG-26" value="&lt;font style=&quot;font-size: 16px;&quot;&gt;q&lt;sup&gt;-&lt;/sup&gt;&lt;/font&gt;" style="text;html=1;align=center;verticalAlign=middle;resizable=0;points=[];autosize=1;strokeColor=none;fillColor=none;" vertex="1" parent="1">
          <mxGeometry x="60" y="355" width="40" height="40" as="geometry" />
        </mxCell>
        <mxCell id="8OnWNZd90nZluzdu8VkG-30" value="" style="endArrow=classic;html=1;rounded=0;" edge="1" parent="1">
          <mxGeometry width="50" height="50" relative="1" as="geometry">
            <mxPoint x="230" y="220" as="sourcePoint" />
            <mxPoint x="230" y="270" as="targetPoint" />
          </mxGeometry>
        </mxCell>
        <mxCell id="8OnWNZd90nZluzdu8VkG-31" value="&lt;font style=&quot;font-size: 16px;&quot;&gt;I&lt;sup&gt;+&lt;/sup&gt;&lt;sub&gt;L_med&lt;/sub&gt;&lt;/font&gt;" style="text;html=1;align=center;verticalAlign=middle;resizable=0;points=[];autosize=1;strokeColor=none;fillColor=none;" vertex="1" parent="1">
          <mxGeometry x="225" y="225" width="80" height="40" as="geometry" />
        </mxCell>
        <mxCell id="8OnWNZd90nZluzdu8VkG-32" value="" style="endArrow=classic;html=1;rounded=0;" edge="1" parent="1">
          <mxGeometry width="50" height="50" relative="1" as="geometry">
            <mxPoint x="230" y="375" as="sourcePoint" />
            <mxPoint x="230" y="425" as="targetPoint" />
          </mxGeometry>
        </mxCell>
        <mxCell id="8OnWNZd90nZluzdu8VkG-33" value="&lt;font style=&quot;font-size: 16px;&quot;&gt;I&lt;sup&gt;+&lt;/sup&gt;&lt;sub&gt;L_med&lt;/sub&gt;&lt;/font&gt;" style="text;html=1;align=center;verticalAlign=middle;resizable=0;points=[];autosize=1;strokeColor=none;fillColor=none;" vertex="1" parent="1">
          <mxGeometry x="225" y="380" width="80" height="40" as="geometry" />
        </mxCell>
      </root>
    </mxGraphModel>
  </diagram>
</mxfile>
